# xmcd
#
# Track frame offsets:
#      150
#      23912
#      46000
#      65625
# 
# Disc length: 1187 seconds
#
# Revision: 3
# Processed by: cddbd v1.5.1PL0 Copyright (c) Steve Scherf et al.
#
# Submitted via: FreeRIP 1.20
#
DISCID=2c04a104
DTITLE=Van Morrison - No Religion
DYEAR=1995
DGENRE=Blues
TTITLE0=No Religion
TTITLE1=Whenever God Shines His Light
TTITLE2=Have I Told You Lately That I Love You?
TTITLE3=Gloria
EXTD=
EXTT0=
EXTT1=
EXTT2=
EXTT3=
PLAYORDER=
